<svg width="80" height="80" xmlns="http://www.w3.org/2000/svg">

 <g>
  <title>background</title>
  <rect fill="none" id="canvas_background" height="82" width="82" y="-1" x="-1"/>
 </g>
 <g>
  <title>Layer 1</title>
  <path stroke="null" fill="#ffffff" id="svg_1" d="m34.935421,46.403967l-9.666732,0l0,5.527793l0.831088,0l0,27.794242l8.066901,0l0,-27.796484l0.768744,0l0,-5.52555l0,0zm1.86737,-20.644716c0,-0.026907 -0.002454,-0.048209 -0.002454,-0.075117l0.002454,0l0,-23.881455c0,-0.84366 -0.598894,-1.528117 -1.337202,-1.528117c-0.737817,0 -1.337202,0.683897 -1.337202,1.528117l0,12.580339l0,5.450434l0,0.607659c-0.122724,0.69679 -0.663201,1.224848 -1.311675,1.224848c-0.738308,0 -1.337202,-0.683897 -1.337202,-1.526435l0,-8.300378l0,-10.036467c-0.001473,-0.84422 -0.606748,-1.528678 -1.35291,-1.528678s-1.350947,0.683897 -1.350947,1.528117l0,10.023013l0,8.311029c0,0.842539 -0.598894,1.526996 -1.337693,1.526996c-0.737326,0 -1.336711,-0.682776 -1.336711,-1.526996l0,-18.324512l-0.0054,0c0.000982,-0.021302 0.004418,-0.039801 0.004418,-0.061102c0,-0.816192 -0.600366,-1.476545 -1.339656,-1.476545c-0.738799,0 -1.338184,0.660353 -1.338184,1.475423c0,0.021302 0.001964,0.039801 0.002945,0.061102l-0.002945,0l0,23.871925l0.001964,0c0,0.028029 -0.001964,0.049891 -0.001964,0.076798c0,5.974007 1.738264,11.081372 4.195692,13.184635l0,7.203901l4.967872,0l0,-7.187644c2.4697,-2.090931 4.2168,-7.208946 4.2168,-13.200891m18.731625,31.047236l0,-32.01254l0,-24.519385c-4.638971,1.554464 -8.027138,6.454977 -8.027138,12.261935c0,0.011772 0.000982,0.024665 0.001473,0.035877l-0.001473,0l0,44.234674l-1.110408,0l0,6.112468l1.110408,0l0,16.805364l8.027138,0l0,-16.807607l1.043155,0l0,-6.110787l-1.043155,0z"/>
 </g>
</svg>