<svg width="200" height="200" xmlns="http://www.w3.org/2000/svg">

 <g>
  <title>background</title>
  <rect fill="none" id="canvas_background" height="202" width="202" y="-1" x="-1"/>
 </g>
 <g>
  <title>Layer 1</title>
  <path fill="#f3f3f3" stroke="null" id="svg_1" d="m88.224414,114.805719l-22.475998,0l0,12.780048l1.932351,0l0,64.259236l18.75625,0l0,-64.26442l1.787397,0l0,-12.774864l0,0zm4.341798,-47.729804c0,-0.062209 -0.005707,-0.111458 -0.005707,-0.173667l0.005707,0l0,-55.21302c0,-1.950509 -1.39248,-3.532949 -3.109111,-3.532949c-1.71549,0 -3.109111,1.581144 -3.109111,3.532949l0,29.085268l0,12.601197l0,1.404885c-0.285344,1.610952 -1.542,2.831802 -3.04976,2.831802c-1.716631,0 -3.109111,-1.581144 -3.109111,-3.529061l0,-19.19016l0,-23.203932c-0.003424,-1.951805 -1.410742,-3.534245 -3.145635,-3.534245s-3.14107,1.581144 -3.14107,3.532949l0,23.172827l0,19.214784c0,1.947917 -1.39248,3.530357 -3.110253,3.530357c-1.714348,0 -3.10797,-1.578552 -3.10797,-3.530357l0,-42.365579l-0.012555,0c0.002283,-0.049249 0.010272,-0.092017 0.010272,-0.141266c0,-1.887004 -1.395904,-3.413715 -3.114818,-3.413715c-1.717773,0 -3.111394,1.526711 -3.111394,3.411123c0,0.049249 0.004566,0.092017 0.006848,0.141266l-0.006848,0l0,55.190988l0.004566,0c0,0.064801 -0.004566,0.115346 -0.004566,0.177555c0,13.811679 4.041616,25.619712 9.75535,30.482377l0,16.655146l11.550736,0l0,-16.617561c5.742268,-4.834152 9.804429,-16.66681 9.804429,-30.519962m43.552667,71.780036l0,-74.011782l0,-56.68789c-10.786014,3.593862 -18.663798,14.923664 -18.663798,28.349129c0,0.027216 0.002283,0.057025 0.003424,0.082945l-0.003424,0l0,102.268894l-2.581795,0l0,14.131796l2.581795,0l0,38.853367l18.663798,0l0,-38.858551l2.425426,0l0,-14.127908l-2.425426,0z"/>
 </g>
</svg>